<svg width="127" height="28" viewBox="0 0 127 28" fill="none" xmlns="http://www.w3.org/2000/svg">
<path d="M9.83203 22H5.96484L5.98828 20.7695H9.83203C11.0586 20.7695 12.1133 20.4961 12.9961 19.9492C13.8867 19.3945 14.5742 18.6289 15.0586 17.6523C15.543 16.6758 15.7852 15.543 15.7852 14.2539V12.6602C15.7852 11.6758 15.6445 10.7852 15.3633 9.98828C15.0898 9.19141 14.6953 8.51172 14.1797 7.94922C13.6641 7.37891 13.0469 6.94141 12.3281 6.63672C11.6172 6.33203 10.8203 6.17969 9.9375 6.17969H5.89453V4.9375H9.9375C11 4.9375 11.9727 5.12109 12.8555 5.48828C13.7461 5.84766 14.5156 6.37109 15.1641 7.05859C15.8203 7.73828 16.3242 8.55469 16.6758 9.50781C17.0352 10.4609 17.2148 11.5234 17.2148 12.6953V14.2539C17.2148 15.4258 17.0352 16.4883 16.6758 17.4414C16.3242 18.3945 15.8203 19.2109 15.1641 19.8906C14.5078 20.5703 13.7305 21.0938 12.832 21.4609C11.9336 21.8203 10.9336 22 9.83203 22ZM6.60938 4.9375V22H5.16797V4.9375H6.60938ZM25.4648 22.2344C24.6367 22.2344 23.875 22.082 23.1797 21.7773C22.4922 21.4727 21.8906 21.043 21.375 20.4883C20.8672 19.9336 20.4727 19.2773 20.1914 18.5195C19.918 17.7539 19.7812 16.918 19.7812 16.0117V15.5078C19.7812 14.5312 19.9258 13.6484 20.2148 12.8594C20.5039 12.0703 20.9023 11.3945 21.4102 10.832C21.918 10.2695 22.4961 9.83984 23.1445 9.54297C23.8008 9.23828 24.4883 9.08594 25.207 9.08594C26.0117 9.08594 26.7266 9.23047 27.3516 9.51953C27.9766 9.80078 28.5 10.2031 28.9219 10.7266C29.3516 11.2422 29.6758 11.8555 29.8945 12.5664C30.1133 13.2695 30.2227 14.0469 30.2227 14.8984V15.7539H20.625V14.5586H28.8281V14.3945C28.8125 13.6836 28.668 13.0195 28.3945 12.4023C28.1289 11.7773 27.7305 11.2695 27.1992 10.8789C26.668 10.4883 26.0039 10.293 25.207 10.293C24.6133 10.293 24.0664 10.418 23.5664 10.668C23.0742 10.918 22.6484 11.2773 22.2891 11.7461C21.9375 12.207 21.6641 12.7578 21.4688 13.3984C21.2812 14.0312 21.1875 14.7344 21.1875 15.5078V16.0117C21.1875 16.7148 21.2891 17.3711 21.4922 17.9805C21.7031 18.582 22 19.1133 22.3828 19.5742C22.7734 20.0352 23.2344 20.3945 23.7656 20.6523C24.2969 20.9102 24.8828 21.0391 25.5234 21.0391C26.2734 21.0391 26.9375 20.9023 27.5156 20.6289C28.0938 20.3477 28.6133 19.9062 29.0742 19.3047L29.9531 19.9844C29.6797 20.3906 29.3359 20.7656 28.9219 21.1094C28.5156 21.4531 28.0273 21.7266 27.457 21.9297C26.8867 22.1328 26.2227 22.2344 25.4648 22.2344ZM32.9648 4H34.3711V19.5391L34.2773 22H32.9648V4ZM43.1953 15.543V15.7891C43.1953 16.7344 43.0859 17.6016 42.8672 18.3906C42.6484 19.1797 42.332 19.8633 41.918 20.4414C41.5039 21.0117 40.9961 21.4531 40.3945 21.7656C39.8008 22.0781 39.1172 22.2344 38.3438 22.2344C37.5859 22.2344 36.9141 22.1172 36.3281 21.8828C35.7422 21.6406 35.2422 21.3008 34.8281 20.8633C34.4141 20.418 34.082 19.8984 33.832 19.3047C33.582 18.7031 33.4062 18.043 33.3047 17.3242V14.1953C33.4219 13.4297 33.6094 12.7344 33.8672 12.1094C34.125 11.4844 34.457 10.9453 34.8633 10.4922C35.2773 10.0391 35.7695 9.69141 36.3398 9.44922C36.918 9.20703 37.5781 9.08594 38.3203 9.08594C39.0938 9.08594 39.7812 9.23828 40.3828 9.54297C40.9922 9.83984 41.5039 10.2734 41.918 10.8438C42.332 11.4062 42.6484 12.0859 42.8672 12.8828C43.0859 13.6719 43.1953 14.5586 43.1953 15.543ZM41.7773 15.7891V15.543C41.7773 14.8008 41.707 14.1133 41.5664 13.4805C41.4258 12.8477 41.2031 12.2969 40.8984 11.8281C40.6016 11.3516 40.2188 10.9805 39.75 10.7148C39.2812 10.4492 38.7188 10.3164 38.0625 10.3164C37.3906 10.3164 36.8164 10.4297 36.3398 10.6562C35.8711 10.875 35.4805 11.168 35.168 11.5352C34.8633 11.8945 34.6211 12.2891 34.4414 12.7188C34.2617 13.1484 34.1289 13.5703 34.043 13.9844V17.6289C34.1758 18.2148 34.4062 18.7656 34.7344 19.2812C35.0625 19.7969 35.5039 20.2148 36.0586 20.5352C36.6133 20.8477 37.2891 21.0039 38.0859 21.0039C38.7266 21.0039 39.2773 20.8711 39.7383 20.6055C40.207 20.3398 40.5898 19.9727 40.8867 19.5039C41.1914 19.0352 41.4141 18.4844 41.5547 17.8516C41.7031 17.2188 41.7773 16.5312 41.7773 15.7891ZM51.0938 9.32031V10.4688H44.7422V9.32031H51.0938ZM47.0742 6.0625H48.4688V18.918C48.4688 19.5039 48.5469 19.9453 48.7031 20.2422C48.8594 20.5391 49.0625 20.7383 49.3125 20.8398C49.5625 20.9414 49.832 20.9922 50.1211 20.9922C50.332 20.9922 50.5352 20.9805 50.7305 20.957C50.9258 20.9258 51.1016 20.8945 51.2578 20.8633L51.3164 22.0469C51.1445 22.1016 50.9219 22.1445 50.6484 22.1758C50.375 22.2148 50.1016 22.2344 49.8281 22.2344C49.2891 22.2344 48.8125 22.1367 48.3984 21.9414C47.9844 21.7383 47.6602 21.3945 47.4258 20.9102C47.1914 20.418 47.0742 19.75 47.0742 18.9062V6.0625Z" fill="black" fill-opacity="0.76"/>
<path d="M1 19L53 13" stroke="#E03434" stroke-width="2"/>
<path d="M64.4062 17.5352C64.4062 17.2305 64.3594 16.957 64.2656 16.7148C64.1797 16.4648 64.0156 16.2383 63.7734 16.0352C63.5312 15.8242 63.1914 15.6172 62.7539 15.4141C62.3164 15.2109 61.75 15 61.0547 14.7812C60.2812 14.5312 59.5469 14.25 58.8516 13.9375C58.1641 13.625 57.5547 13.2617 57.0234 12.8477C56.5 12.4258 56.0859 11.9375 55.7812 11.3828C55.4844 10.8281 55.3359 10.1836 55.3359 9.44922C55.3359 8.73828 55.4922 8.09375 55.8047 7.51562C56.1172 6.92969 56.5547 6.42969 57.1172 6.01562C57.6797 5.59375 58.3438 5.26953 59.1094 5.04297C59.8828 4.81641 60.7305 4.70312 61.6523 4.70312C62.9102 4.70312 64.0078 4.92969 64.9453 5.38281C65.8828 5.83594 66.6094 6.45703 67.125 7.24609C67.6484 8.03516 67.9102 8.9375 67.9102 9.95312H64.418C64.418 9.45312 64.3125 9.01562 64.1016 8.64062C63.8984 8.25781 63.5859 7.95703 63.1641 7.73828C62.75 7.51953 62.2266 7.41016 61.5938 7.41016C60.9844 7.41016 60.4766 7.50391 60.0703 7.69141C59.6641 7.87109 59.3594 8.11719 59.1562 8.42969C58.9531 8.73438 58.8516 9.07812 58.8516 9.46094C58.8516 9.75 58.9219 10.0117 59.0625 10.2461C59.2109 10.4805 59.4297 10.6992 59.7188 10.9023C60.0078 11.1055 60.3633 11.2969 60.7852 11.4766C61.207 11.6562 61.6953 11.832 62.25 12.0039C63.1797 12.2852 63.9961 12.6016 64.6992 12.9531C65.4102 13.3047 66.0039 13.6992 66.4805 14.1367C66.957 14.5742 67.3164 15.0703 67.5586 15.625C67.8008 16.1797 67.9219 16.8086 67.9219 17.5117C67.9219 18.2539 67.7773 18.918 67.4883 19.5039C67.1992 20.0898 66.7812 20.5859 66.2344 20.9922C65.6875 21.3984 65.0352 21.707 64.2773 21.918C63.5195 22.1289 62.6719 22.2344 61.7344 22.2344C60.8906 22.2344 60.0586 22.125 59.2383 21.9062C58.418 21.6797 57.6719 21.3398 57 20.8867C56.3359 20.4336 55.8047 19.8555 55.4062 19.1523C55.0078 18.4492 54.8086 17.6172 54.8086 16.6562H58.3359C58.3359 17.1875 58.418 17.6367 58.582 18.0039C58.7461 18.3711 58.9766 18.668 59.2734 18.8945C59.5781 19.1211 59.9375 19.2852 60.3516 19.3867C60.7734 19.4883 61.2344 19.5391 61.7344 19.5391C62.3438 19.5391 62.8438 19.4531 63.2344 19.2812C63.6328 19.1094 63.9258 18.8711 64.1133 18.5664C64.3086 18.2617 64.4062 17.918 64.4062 17.5352ZM75.9375 22.2344C74.9531 22.2344 74.0703 22.0781 73.2891 21.7656C72.5078 21.4453 71.8438 21.0039 71.2969 20.4414C70.7578 19.8789 70.3438 19.2266 70.0547 18.4844C69.7656 17.7344 69.6211 16.9375 69.6211 16.0938V15.625C69.6211 14.6641 69.7578 13.7852 70.0312 12.9883C70.3047 12.1914 70.6953 11.5 71.2031 10.9141C71.7188 10.3281 72.3438 9.87891 73.0781 9.56641C73.8125 9.24609 74.6406 9.08594 75.5625 9.08594C76.4609 9.08594 77.2578 9.23438 77.9531 9.53125C78.6484 9.82812 79.2305 10.25 79.6992 10.7969C80.1758 11.3438 80.5352 12 80.7773 12.7656C81.0195 13.5234 81.1406 14.3672 81.1406 15.2969V16.7031H71.0625V14.4531H77.8242V14.1953C77.8242 13.7266 77.7383 13.3086 77.5664 12.9414C77.4023 12.5664 77.1523 12.2695 76.8164 12.0508C76.4805 11.832 76.0508 11.7227 75.5273 11.7227C75.082 11.7227 74.6992 11.8203 74.3789 12.0156C74.0586 12.2109 73.7969 12.4844 73.5938 12.8359C73.3984 13.1875 73.25 13.6016 73.1484 14.0781C73.0547 14.5469 73.0078 15.0625 73.0078 15.625V16.0938C73.0078 16.6016 73.0781 17.0703 73.2188 17.5C73.3672 17.9297 73.5742 18.3008 73.8398 18.6133C74.1133 18.9258 74.4414 19.168 74.8242 19.3398C75.2148 19.5117 75.6562 19.5977 76.1484 19.5977C76.7578 19.5977 77.3242 19.4805 77.8477 19.2461C78.3789 19.0039 78.8359 18.6406 79.2188 18.1562L80.8594 19.9375C80.5938 20.3203 80.2305 20.6875 79.7695 21.0391C79.3164 21.3906 78.7695 21.6797 78.1289 21.9062C77.4883 22.125 76.7578 22.2344 75.9375 22.2344ZM89.2734 9.32031V11.7109H81.8906V9.32031H89.2734ZM83.7188 6.19141H87.0938V18.1797C87.0938 18.5469 87.1406 18.8281 87.2344 19.0234C87.3359 19.2188 87.4844 19.3555 87.6797 19.4336C87.875 19.5039 88.1211 19.5391 88.418 19.5391C88.6289 19.5391 88.8164 19.5312 88.9805 19.5156C89.1523 19.4922 89.2969 19.4688 89.4141 19.4453L89.4258 21.9297C89.1367 22.0234 88.8242 22.0977 88.4883 22.1523C88.1523 22.207 87.7812 22.2344 87.375 22.2344C86.6328 22.2344 85.9844 22.1133 85.4297 21.8711C84.8828 21.6211 84.4609 21.2227 84.1641 20.6758C83.8672 20.1289 83.7188 19.4102 83.7188 18.5195V6.19141ZM97.4062 9.32031V11.7109H90.0234V9.32031H97.4062ZM91.8516 6.19141H95.2266V18.1797C95.2266 18.5469 95.2734 18.8281 95.3672 19.0234C95.4688 19.2188 95.6172 19.3555 95.8125 19.4336C96.0078 19.5039 96.2539 19.5391 96.5508 19.5391C96.7617 19.5391 96.9492 19.5312 97.1133 19.5156C97.2852 19.4922 97.4297 19.4688 97.5469 19.4453L97.5586 21.9297C97.2695 22.0234 96.957 22.0977 96.6211 22.1523C96.2852 22.207 95.9141 22.2344 95.5078 22.2344C94.7656 22.2344 94.1172 22.1133 93.5625 21.8711C93.0156 21.6211 92.5938 21.2227 92.2969 20.6758C92 20.1289 91.8516 19.4102 91.8516 18.5195V6.19141ZM102.891 4V22H99.5039V4H102.891ZM111.516 22.2344C110.531 22.2344 109.648 22.0781 108.867 21.7656C108.086 21.4453 107.422 21.0039 106.875 20.4414C106.336 19.8789 105.922 19.2266 105.633 18.4844C105.344 17.7344 105.199 16.9375 105.199 16.0938V15.625C105.199 14.6641 105.336 13.7852 105.609 12.9883C105.883 12.1914 106.273 11.5 106.781 10.9141C107.297 10.3281 107.922 9.87891 108.656 9.56641C109.391 9.24609 110.219 9.08594 111.141 9.08594C112.039 9.08594 112.836 9.23438 113.531 9.53125C114.227 9.82812 114.809 10.25 115.277 10.7969C115.754 11.3438 116.113 12 116.355 12.7656C116.598 13.5234 116.719 14.3672 116.719 15.2969V16.7031H106.641V14.4531H113.402V14.1953C113.402 13.7266 113.316 13.3086 113.145 12.9414C112.98 12.5664 112.73 12.2695 112.395 12.0508C112.059 11.832 111.629 11.7227 111.105 11.7227C110.66 11.7227 110.277 11.8203 109.957 12.0156C109.637 12.2109 109.375 12.4844 109.172 12.8359C108.977 13.1875 108.828 13.6016 108.727 14.0781C108.633 14.5469 108.586 15.0625 108.586 15.625V16.0938C108.586 16.6016 108.656 17.0703 108.797 17.5C108.945 17.9297 109.152 18.3008 109.418 18.6133C109.691 18.9258 110.02 19.168 110.402 19.3398C110.793 19.5117 111.234 19.5977 111.727 19.5977C112.336 19.5977 112.902 19.4805 113.426 19.2461C113.957 19.0039 114.414 18.6406 114.797 18.1562L116.438 19.9375C116.172 20.3203 115.809 20.6875 115.348 21.0391C114.895 21.3906 114.348 21.6797 113.707 21.9062C113.066 22.125 112.336 22.2344 111.516 22.2344ZM122.016 12.0859V22H118.641V9.32031H121.816L122.016 12.0859ZM125.836 9.23828L125.777 12.3672C125.613 12.3438 125.414 12.3242 125.18 12.3086C124.953 12.2852 124.746 12.2734 124.559 12.2734C124.082 12.2734 123.668 12.3359 123.316 12.4609C122.973 12.5781 122.684 12.7539 122.449 12.9883C122.223 13.2227 122.051 13.5078 121.934 13.8438C121.824 14.1797 121.762 14.5625 121.746 14.9922L121.066 14.7812C121.066 13.9609 121.148 13.207 121.312 12.5195C121.477 11.8242 121.715 11.2188 122.027 10.7031C122.348 10.1875 122.738 9.78906 123.199 9.50781C123.66 9.22656 124.188 9.08594 124.781 9.08594C124.969 9.08594 125.16 9.10156 125.355 9.13281C125.551 9.15625 125.711 9.19141 125.836 9.23828Z" fill="black" fill-opacity="0.76"/>
</svg>
