<svg xmlns="http://www.w3.org/2000/svg" viewBox="0 0 640.25 512.25"><title>house-circle-add-solid</title><g id="Layer_1" data-name="Layer 1"><path d="M496,192a186.43,186.43,0,0,1,26.1,1.9L309.5,7c-6.1-5-14.1-7-21.1-7s-15,1-22,8L10,231.5a32.47,32.47,0,0,0-10,24,31.7,31.7,0,0,0,32.05,32.1h32v69.6c-.06.9-.09,1.9-.09,2.8V472a40,40,0,0,0,40,40h16c1.2,0,2.4-.1,3.6-.2,1.5.1,3,.2,4.5.2H184a40,40,0,0,0,40-40V384a32,32,0,0,1,32-32h64.7C328.8,262.3,404.2,192,496,192Z"/></g><g id="Layer_2" data-name="Layer 2"><path d="M351.75,368A144.25,144.25,0,1,1,496,512.25,144.23,144.23,0,0,1,351.75,368ZM496,431.11a13.49,13.49,0,0,0,13.52-13.52V381.52h36.07a13.52,13.52,0,0,0,0-27H509.52V318.41a13.52,13.52,0,1,0-27,0v36.07H446.41a13.52,13.52,0,0,0,0,27h36.07v36.07A13.49,13.49,0,0,0,496,431.11Z"/></g></svg>